<svg xmlns="http://www.w3.org/2000/svg" width="100%" viewBox="0 0 900 220">
<defs>
<style>
@keyframes flow{from{stroke-dashoffset:0}to{stroke-dashoffset:-100}}
@keyframes blink{0%,49%{opacity:1}50%,100%{opacity:0}}
@keyframes crt{0%,92%,100%{opacity:1}93%,96%{opacity:.82}97%{opacity:1}}
@keyframes nb{0%,100%{stroke-opacity:.5}50%{stroke-opacity:1}}
.scr{animation:crt 14s ease-in-out infinite}
.bg{fill:#010801}
.e{stroke:#002200;stroke-width:.7;fill:none;stroke-dasharray:2 6}
.s{stroke:#00ff41;stroke-width:3;fill:none;stroke-dasharray:5 95;stroke-linecap:square;animation:flow 2.5s linear infinite}
.sk{stroke:#cc8800;stroke-width:2;fill:none;stroke-dasharray:5 95;stroke-linecap:square;animation:flow 3.2s linear infinite}
.skb{stroke:#332200;stroke-width:.7;fill:none;stroke-dasharray:2 5}
.nb{fill:#010801;stroke:#00cc33;stroke-width:1.2;animation:nb 2.5s ease-in-out infinite}
.nc{font-family:'Courier New',Courier,monospace;font-size:8px;fill:#00ff41;dominant-baseline:middle;text-anchor:middle;font-weight:700}
.lbl{font-family:'Courier New',Courier,monospace;font-size:7px;fill:#005500;text-anchor:middle}
.lbl2{font-family:'Courier New',Courier,monospace;font-size:7px;fill:#007700;text-anchor:middle}
.deco{font-family:'Courier New',Courier,monospace;font-size:6.5px;fill:#003800}
.decoR{font-family:'Courier New',Courier,monospace;font-size:6.5px;fill:#003800;text-anchor:end}
.cur{font-family:'Courier New',Courier,monospace;font-size:9px;fill:#00ff41;animation:blink 1s step-end infinite}
.dim{font-family:'Courier New',Courier,monospace;font-size:6px;fill:#001500;text-anchor:middle}
</style>
<!-- scanline pattern -->
<pattern id="sl" width="900" height="4" patternUnits="userSpaceOnUse">
  <rect width="900" height="1" fill="#00ff4109"/>
</pattern>
</defs>

<!-- PHOSPHOR BACKGROUND -->
<rect class="bg scr" width="900" height="220"/>
<rect width="900" height="220" fill="url(#sl)"/>

<!-- TUI BORDER -->
<text class="deco" x="6" y="10">&#x250C;&#x2500;&#x2500;&#x2500;&#x2500;&#x2500;&#x2500;&#x2500;&#x2500;&#x2500;&#x2500;&#x2500;&#x2500;&#x2500;&#x2500;&#x2500;&#x2500;&#x2500;&#x2500;&#x2500;&#x2500;&#x2500;&#x2500;&#x2500;&#x2500;&#x2500;&#x2500;&#x2500;&#x2500;&#x2500;&#x2500;&#x2500;&#x2500;&#x2500;&#x2500;&#x2500;&#x2500;&#x2500;&#x2500;&#x2500;&#x2500;&#x2500;&#x2500;&#x2500;&#x2500;&#x2500;&#x2500;&#x2500;&#x2500;&#x2500;&#x2500;&#x2500;&#x2500;&#x2500;&#x2500;&#x2500;&#x2500;&#x2500;&#x2500;&#x2500;&#x2500;&#x2500;&#x2500;&#x2500;&#x2500;&#x2500;&#x2500;&#x2500;&#x2500;&#x2500;&#x2500;&#x2500;&#x2500;&#x2500;&#x2500;&#x2500;&#x2500;&#x2500;&#x2500;&#x2500;&#x2500;&#x2500;&#x2500;&#x2500;&#x2500;&#x2500;&#x2500;&#x2500;&#x2500;&#x2500;&#x2500;&#x2500;&#x2500;&#x2500;&#x2500;&#x2500;&#x2500;&#x2500;&#x2500;&#x2500;&#x2500;&#x2500;&#x2500;&#x2500;&#x2500;&#x2500;&#x2500;&#x2500;&#x2500;&#x2500;&#x2500;&#x2500;&#x2500;&#x2500;&#x2500;&#x2500;&#x2500;&#x2500;&#x2500;&#x2500;&#x2500;&#x2500;&#x2500;&#x2500;&#x2500;&#x2500;&#x2500;&#x2500;&#x2500;&#x2500;&#x2500;&#x2500;&#x2500;&#x2500;&#x2500;&#x2500;&#x2500;&#x2500;&#x2500;&#x2500;&#x2500;&#x2500;&#x2500;&#x2500;&#x2500;&#x2500;&#x2500;&#x2500;&#x2500;&#x2500;&#x2510;</text>
<text class="deco" x="6" y="213">&#x2514;&#x2500;&#x2500;&#x2500;&#x2500;&#x2500;&#x2500;&#x2500;&#x2500;&#x2500;&#x2500;&#x2500;&#x2500;&#x2500;&#x2500;&#x2500;&#x2500;&#x2500;&#x2500;&#x2500;&#x2500;&#x2500;&#x2500;&#x2500;&#x2500;&#x2500;&#x2500;&#x2500;&#x2500;&#x2500;&#x2500;&#x2500;&#x2500;&#x2500;&#x2500;&#x2500;&#x2500;&#x2500;&#x2500;&#x2500;&#x2500;&#x2500;&#x2500;&#x2500;&#x2500;&#x2500;&#x2500;&#x2500;&#x2500;&#x2500;&#x2500;&#x2500;&#x2500;&#x2500;&#x2500;&#x2500;&#x2500;&#x2500;&#x2500;&#x2500;&#x2500;&#x2500;&#x2500;&#x2500;&#x2500;&#x2500;&#x2500;&#x2500;&#x2500;&#x2500;&#x2500;&#x2500;&#x2500;&#x2500;&#x2500;&#x2500;&#x2500;&#x2500;&#x2500;&#x2500;&#x2500;&#x2500;&#x2500;&#x2500;&#x2500;&#x2500;&#x2500;&#x2500;&#x2500;&#x2500;&#x2500;&#x2500;&#x2500;&#x2500;&#x2500;&#x2500;&#x2500;&#x2500;&#x2500;&#x2500;&#x2500;&#x2500;&#x2500;&#x2500;&#x2500;&#x2500;&#x2500;&#x2500;&#x2500;&#x2500;&#x2500;&#x2500;&#x2500;&#x2500;&#x2500;&#x2500;&#x2500;&#x2500;&#x2500;&#x2500;&#x2500;&#x2500;&#x2500;&#x2500;&#x2500;&#x2500;&#x2500;&#x2500;&#x2500;&#x2500;&#x2500;&#x2500;&#x2500;&#x2500;&#x2500;&#x2500;&#x2500;&#x2500;&#x2500;&#x2500;&#x2500;&#x2500;&#x2500;&#x2500;&#x2500;&#x2500;&#x2500;&#x2500;&#x2500;&#x2500;&#x2518;</text>
<!-- side borders -->
<text class="deco" x="6"   y="22">&#x2502;</text><text class="deco" x="888" y="22">&#x2502;</text>
<text class="deco" x="6"   y="34">&#x2502;</text><text class="deco" x="888" y="34">&#x2502;</text>
<text class="deco" x="6"   y="46">&#x2502;</text><text class="deco" x="888" y="46">&#x2502;</text>
<text class="deco" x="6"   y="58">&#x2502;</text><text class="deco" x="888" y="58">&#x2502;</text>
<text class="deco" x="6"   y="70">&#x2502;</text><text class="deco" x="888" y="70">&#x2502;</text>
<text class="deco" x="6"   y="82">&#x2502;</text><text class="deco" x="888" y="82">&#x2502;</text>
<text class="deco" x="6"   y="94">&#x2502;</text><text class="deco" x="888" y="94">&#x2502;</text>
<text class="deco" x="6"  y="106">&#x2502;</text><text class="deco" x="888" y="106">&#x2502;</text>
<text class="deco" x="6"  y="118">&#x2502;</text><text class="deco" x="888" y="118">&#x2502;</text>
<text class="deco" x="6"  y="130">&#x2502;</text><text class="deco" x="888" y="130">&#x2502;</text>
<text class="deco" x="6"  y="142">&#x2502;</text><text class="deco" x="888" y="142">&#x2502;</text>
<text class="deco" x="6"  y="154">&#x2502;</text><text class="deco" x="888" y="154">&#x2502;</text>
<text class="deco" x="6"  y="166">&#x2502;</text><text class="deco" x="888" y="166">&#x2502;</text>
<text class="deco" x="6"  y="178">&#x2502;</text><text class="deco" x="888" y="178">&#x2502;</text>
<text class="deco" x="6"  y="190">&#x2502;</text><text class="deco" x="888" y="190">&#x2502;</text>
<text class="deco" x="6"  y="202">&#x2502;</text><text class="deco" x="888" y="202">&#x2502;</text>

<!-- TITLE BAR -->
<text class="deco" x="22" y="10">&#x2500;&#x2500;[ </text>
<text font-family="'Courier New',Courier,monospace" font-size="6.5px" fill="#008800" x="60" y="10">neural_net.forward(x)</text>
<text class="deco" x="186" y="10"> ]</text>
<text class="decoR" x="884" y="10">[ 5 layers · 21 neurons · 80 weights ]&#x2500;&#x2500;</text>

<!-- STATUS BAR -->
<text class="deco" x="22" y="213">&#x2500;&#x2500;[ </text>
<text font-family="'Courier New',Courier,monospace" font-size="6.5px" fill="#006600" x="60" y="213">INPUT &#x2192; ReLU &#x2192; ReLU &#x2192; ReLU &#x2192; OUTPUT</text>
<text class="deco" x="290" y="213"> ]</text>
<text class="decoR" x="884" y="213">[ &#x03C3;(W&#xB3;&#xB7;ReLU(W&#xB2;&#xB7;ReLU(W&#xB9;x+b&#xB9;)+b&#xB2;)+b&#xB3;) ]&#x2500;&#x2500;</text>

<!-- SKIP CONNECTION BASES (behind edges) -->
<path class="skb" d="M255,28 C350,6 550,6 645,28"/>
<path class="skb" d="M255,168 C350,194 550,194 645,168"/>

<!-- ═══ BASE EDGES ═══ -->
<!-- L1→L2 -->
<line class="e" pathLength="100" x1="80" y1="60"  x2="255" y2="28"/>  <line class="e" pathLength="100" x1="80" y1="60"  x2="255" y2="63"/>
<line class="e" pathLength="100" x1="80" y1="60"  x2="255" y2="98"/>  <line class="e" pathLength="100" x1="80" y1="60"  x2="255" y2="133"/>
<line class="e" pathLength="100" x1="80" y1="60"  x2="255" y2="168"/>
<line class="e" pathLength="100" x1="80" y1="100" x2="255" y2="28"/>  <line class="e" pathLength="100" x1="80" y1="100" x2="255" y2="63"/>
<line class="e" pathLength="100" x1="80" y1="100" x2="255" y2="98"/>  <line class="e" pathLength="100" x1="80" y1="100" x2="255" y2="133"/>
<line class="e" pathLength="100" x1="80" y1="100" x2="255" y2="168"/>
<line class="e" pathLength="100" x1="80" y1="140" x2="255" y2="28"/>  <line class="e" pathLength="100" x1="80" y1="140" x2="255" y2="63"/>
<line class="e" pathLength="100" x1="80" y1="140" x2="255" y2="98"/>  <line class="e" pathLength="100" x1="80" y1="140" x2="255" y2="133"/>
<line class="e" pathLength="100" x1="80" y1="140" x2="255" y2="168"/>
<!-- L2→L3 -->
<line class="e" pathLength="100" x1="255" y1="28"  x2="450" y2="28"/>  <line class="e" pathLength="100" x1="255" y1="28"  x2="450" y2="63"/>
<line class="e" pathLength="100" x1="255" y1="28"  x2="450" y2="98"/>  <line class="e" pathLength="100" x1="255" y1="28"  x2="450" y2="133"/>
<line class="e" pathLength="100" x1="255" y1="28"  x2="450" y2="168"/>
<line class="e" pathLength="100" x1="255" y1="63"  x2="450" y2="28"/>  <line class="e" pathLength="100" x1="255" y1="63"  x2="450" y2="63"/>
<line class="e" pathLength="100" x1="255" y1="63"  x2="450" y2="98"/>  <line class="e" pathLength="100" x1="255" y1="63"  x2="450" y2="133"/>
<line class="e" pathLength="100" x1="255" y1="63"  x2="450" y2="168"/>
<line class="e" pathLength="100" x1="255" y1="98"  x2="450" y2="28"/>  <line class="e" pathLength="100" x1="255" y1="98"  x2="450" y2="63"/>
<line class="e" pathLength="100" x1="255" y1="98"  x2="450" y2="98"/>  <line class="e" pathLength="100" x1="255" y1="98"  x2="450" y2="133"/>
<line class="e" pathLength="100" x1="255" y1="98"  x2="450" y2="168"/>
<line class="e" pathLength="100" x1="255" y1="133" x2="450" y2="28"/>  <line class="e" pathLength="100" x1="255" y1="133" x2="450" y2="63"/>
<line class="e" pathLength="100" x1="255" y1="133" x2="450" y2="98"/>  <line class="e" pathLength="100" x1="255" y1="133" x2="450" y2="133"/>
<line class="e" pathLength="100" x1="255" y1="133" x2="450" y2="168"/>
<line class="e" pathLength="100" x1="255" y1="168" x2="450" y2="28"/>  <line class="e" pathLength="100" x1="255" y1="168" x2="450" y2="63"/>
<line class="e" pathLength="100" x1="255" y1="168" x2="450" y2="98"/>  <line class="e" pathLength="100" x1="255" y1="168" x2="450" y2="133"/>
<line class="e" pathLength="100" x1="255" y1="168" x2="450" y2="168"/>
<!-- L3→L4 -->
<line class="e" pathLength="100" x1="450" y1="28"  x2="645" y2="28"/>  <line class="e" pathLength="100" x1="450" y1="28"  x2="645" y2="63"/>
<line class="e" pathLength="100" x1="450" y1="28"  x2="645" y2="98"/>  <line class="e" pathLength="100" x1="450" y1="28"  x2="645" y2="133"/>
<line class="e" pathLength="100" x1="450" y1="28"  x2="645" y2="168"/>
<line class="e" pathLength="100" x1="450" y1="63"  x2="645" y2="28"/>  <line class="e" pathLength="100" x1="450" y1="63"  x2="645" y2="63"/>
<line class="e" pathLength="100" x1="450" y1="63"  x2="645" y2="98"/>  <line class="e" pathLength="100" x1="450" y1="63"  x2="645" y2="133"/>
<line class="e" pathLength="100" x1="450" y1="63"  x2="645" y2="168"/>
<line class="e" pathLength="100" x1="450" y1="98"  x2="645" y2="28"/>  <line class="e" pathLength="100" x1="450" y1="98"  x2="645" y2="63"/>
<line class="e" pathLength="100" x1="450" y1="98"  x2="645" y2="98"/>  <line class="e" pathLength="100" x1="450" y1="98"  x2="645" y2="133"/>
<line class="e" pathLength="100" x1="450" y1="98"  x2="645" y2="168"/>
<line class="e" pathLength="100" x1="450" y1="133" x2="645" y2="28"/>  <line class="e" pathLength="100" x1="450" y1="133" x2="645" y2="63"/>
<line class="e" pathLength="100" x1="450" y1="133" x2="645" y2="98"/>  <line class="e" pathLength="100" x1="450" y1="133" x2="645" y2="133"/>
<line class="e" pathLength="100" x1="450" y1="133" x2="645" y2="168"/>
<line class="e" pathLength="100" x1="450" y1="168" x2="645" y2="28"/>  <line class="e" pathLength="100" x1="450" y1="168" x2="645" y2="63"/>
<line class="e" pathLength="100" x1="450" y1="168" x2="645" y2="98"/>  <line class="e" pathLength="100" x1="450" y1="168" x2="645" y2="133"/>
<line class="e" pathLength="100" x1="450" y1="168" x2="645" y2="168"/>
<!-- L4→L5 -->
<line class="e" pathLength="100" x1="645" y1="28"  x2="820" y2="60"/>  <line class="e" pathLength="100" x1="645" y1="28"  x2="820" y2="100"/>
<line class="e" pathLength="100" x1="645" y1="28"  x2="820" y2="140"/>
<line class="e" pathLength="100" x1="645" y1="63"  x2="820" y2="60"/>  <line class="e" pathLength="100" x1="645" y1="63"  x2="820" y2="100"/>
<line class="e" pathLength="100" x1="645" y1="63"  x2="820" y2="140"/>
<line class="e" pathLength="100" x1="645" y1="98"  x2="820" y2="60"/>  <line class="e" pathLength="100" x1="645" y1="98"  x2="820" y2="100"/>
<line class="e" pathLength="100" x1="645" y1="98"  x2="820" y2="140"/>
<line class="e" pathLength="100" x1="645" y1="133" x2="820" y2="60"/>  <line class="e" pathLength="100" x1="645" y1="133" x2="820" y2="100"/>
<line class="e" pathLength="100" x1="645" y1="133" x2="820" y2="140"/>
<line class="e" pathLength="100" x1="645" y1="168" x2="820" y2="60"/>  <line class="e" pathLength="100" x1="645" y1="168" x2="820" y2="100"/>
<line class="e" pathLength="100" x1="645" y1="168" x2="820" y2="140"/>

<!-- ═══ SIGNALS L1→L2 ═══ -->
<line class="s" pathLength="100" x1="80" y1="60" x2="255" y2="28" style="animation-delay:.00s"/><line class="s" pathLength="100" x1="80" y1="60" x2="255" y2="28" style="animation-delay:1.25s"/>
<line class="s" pathLength="100" x1="80" y1="60" x2="255" y2="63" style="animation-delay:.04s"/><line class="s" pathLength="100" x1="80" y1="60" x2="255" y2="63" style="animation-delay:1.29s"/>
<line class="s" pathLength="100" x1="80" y1="60" x2="255" y2="98" style="animation-delay:.08s"/><line class="s" pathLength="100" x1="80" y1="60" x2="255" y2="98" style="animation-delay:1.33s"/>
<line class="s" pathLength="100" x1="80" y1="60" x2="255" y2="133" style="animation-delay:.12s"/><line class="s" pathLength="100" x1="80" y1="60" x2="255" y2="133" style="animation-delay:1.37s"/>
<line class="s" pathLength="100" x1="80" y1="60" x2="255" y2="168" style="animation-delay:.16s"/><line class="s" pathLength="100" x1="80" y1="60" x2="255" y2="168" style="animation-delay:1.41s"/>
<line class="s" pathLength="100" x1="80" y1="100" x2="255" y2="28" style="animation-delay:.20s"/><line class="s" pathLength="100" x1="80" y1="100" x2="255" y2="28" style="animation-delay:1.45s"/>
<line class="s" pathLength="100" x1="80" y1="100" x2="255" y2="63" style="animation-delay:.24s"/><line class="s" pathLength="100" x1="80" y1="100" x2="255" y2="63" style="animation-delay:1.49s"/>
<line class="s" pathLength="100" x1="80" y1="100" x2="255" y2="98" style="animation-delay:.28s"/><line class="s" pathLength="100" x1="80" y1="100" x2="255" y2="98" style="animation-delay:1.53s"/>
<line class="s" pathLength="100" x1="80" y1="100" x2="255" y2="133" style="animation-delay:.32s"/><line class="s" pathLength="100" x1="80" y1="100" x2="255" y2="133" style="animation-delay:1.57s"/>
<line class="s" pathLength="100" x1="80" y1="100" x2="255" y2="168" style="animation-delay:.36s"/><line class="s" pathLength="100" x1="80" y1="100" x2="255" y2="168" style="animation-delay:1.61s"/>
<line class="s" pathLength="100" x1="80" y1="140" x2="255" y2="28" style="animation-delay:.40s"/><line class="s" pathLength="100" x1="80" y1="140" x2="255" y2="28" style="animation-delay:1.65s"/>
<line class="s" pathLength="100" x1="80" y1="140" x2="255" y2="63" style="animation-delay:.44s"/><line class="s" pathLength="100" x1="80" y1="140" x2="255" y2="63" style="animation-delay:1.69s"/>
<line class="s" pathLength="100" x1="80" y1="140" x2="255" y2="98" style="animation-delay:.48s"/><line class="s" pathLength="100" x1="80" y1="140" x2="255" y2="98" style="animation-delay:1.73s"/>
<line class="s" pathLength="100" x1="80" y1="140" x2="255" y2="133" style="animation-delay:.52s"/><line class="s" pathLength="100" x1="80" y1="140" x2="255" y2="133" style="animation-delay:1.77s"/>
<line class="s" pathLength="100" x1="80" y1="140" x2="255" y2="168" style="animation-delay:.56s"/><line class="s" pathLength="100" x1="80" y1="140" x2="255" y2="168" style="animation-delay:1.81s"/>

<!-- ═══ SIGNALS L2→L3 ═══ -->
<line class="s" pathLength="100" x1="255" y1="28" x2="450" y2="28" style="animation-delay:.70s"/><line class="s" pathLength="100" x1="255" y1="28" x2="450" y2="28" style="animation-delay:1.95s"/>
<line class="s" pathLength="100" x1="255" y1="28" x2="450" y2="63" style="animation-delay:.73s"/><line class="s" pathLength="100" x1="255" y1="28" x2="450" y2="63" style="animation-delay:1.98s"/>
<line class="s" pathLength="100" x1="255" y1="28" x2="450" y2="98" style="animation-delay:.76s"/><line class="s" pathLength="100" x1="255" y1="28" x2="450" y2="98" style="animation-delay:2.01s"/>
<line class="s" pathLength="100" x1="255" y1="28" x2="450" y2="133" style="animation-delay:.79s"/><line class="s" pathLength="100" x1="255" y1="28" x2="450" y2="133" style="animation-delay:2.04s"/>
<line class="s" pathLength="100" x1="255" y1="28" x2="450" y2="168" style="animation-delay:.82s"/><line class="s" pathLength="100" x1="255" y1="28" x2="450" y2="168" style="animation-delay:2.07s"/>
<line class="s" pathLength="100" x1="255" y1="63" x2="450" y2="28" style="animation-delay:.85s"/><line class="s" pathLength="100" x1="255" y1="63" x2="450" y2="28" style="animation-delay:2.10s"/>
<line class="s" pathLength="100" x1="255" y1="63" x2="450" y2="63" style="animation-delay:.88s"/><line class="s" pathLength="100" x1="255" y1="63" x2="450" y2="63" style="animation-delay:2.13s"/>
<line class="s" pathLength="100" x1="255" y1="63" x2="450" y2="98" style="animation-delay:.91s"/><line class="s" pathLength="100" x1="255" y1="63" x2="450" y2="98" style="animation-delay:2.16s"/>
<line class="s" pathLength="100" x1="255" y1="63" x2="450" y2="133" style="animation-delay:.94s"/><line class="s" pathLength="100" x1="255" y1="63" x2="450" y2="133" style="animation-delay:2.19s"/>
<line class="s" pathLength="100" x1="255" y1="63" x2="450" y2="168" style="animation-delay:.97s"/><line class="s" pathLength="100" x1="255" y1="63" x2="450" y2="168" style="animation-delay:2.22s"/>
<line class="s" pathLength="100" x1="255" y1="98" x2="450" y2="28" style="animation-delay:1.00s"/><line class="s" pathLength="100" x1="255" y1="98" x2="450" y2="28" style="animation-delay:2.25s"/>
<line class="s" pathLength="100" x1="255" y1="98" x2="450" y2="63" style="animation-delay:1.03s"/><line class="s" pathLength="100" x1="255" y1="98" x2="450" y2="63" style="animation-delay:2.28s"/>
<line class="s" pathLength="100" x1="255" y1="98" x2="450" y2="98" style="animation-delay:1.06s"/><line class="s" pathLength="100" x1="255" y1="98" x2="450" y2="98" style="animation-delay:2.31s"/>
<line class="s" pathLength="100" x1="255" y1="98" x2="450" y2="133" style="animation-delay:1.09s"/><line class="s" pathLength="100" x1="255" y1="98" x2="450" y2="133" style="animation-delay:2.34s"/>
<line class="s" pathLength="100" x1="255" y1="98" x2="450" y2="168" style="animation-delay:1.12s"/><line class="s" pathLength="100" x1="255" y1="98" x2="450" y2="168" style="animation-delay:2.37s"/>
<line class="s" pathLength="100" x1="255" y1="133" x2="450" y2="28" style="animation-delay:1.15s"/><line class="s" pathLength="100" x1="255" y1="133" x2="450" y2="28" style="animation-delay:2.40s"/>
<line class="s" pathLength="100" x1="255" y1="133" x2="450" y2="63" style="animation-delay:1.18s"/><line class="s" pathLength="100" x1="255" y1="133" x2="450" y2="63" style="animation-delay:2.43s"/>
<line class="s" pathLength="100" x1="255" y1="133" x2="450" y2="98" style="animation-delay:1.21s"/><line class="s" pathLength="100" x1="255" y1="133" x2="450" y2="98" style="animation-delay:2.46s"/>
<line class="s" pathLength="100" x1="255" y1="133" x2="450" y2="133" style="animation-delay:1.24s"/><line class="s" pathLength="100" x1="255" y1="133" x2="450" y2="133" style="animation-delay:2.49s"/>
<line class="s" pathLength="100" x1="255" y1="133" x2="450" y2="168" style="animation-delay:1.27s"/><line class="s" pathLength="100" x1="255" y1="133" x2="450" y2="168" style="animation-delay:2.52s"/>
<line class="s" pathLength="100" x1="255" y1="168" x2="450" y2="28" style="animation-delay:1.30s"/><line class="s" pathLength="100" x1="255" y1="168" x2="450" y2="28" style="animation-delay:2.55s"/>
<line class="s" pathLength="100" x1="255" y1="168" x2="450" y2="63" style="animation-delay:1.33s"/><line class="s" pathLength="100" x1="255" y1="168" x2="450" y2="63" style="animation-delay:2.58s"/>
<line class="s" pathLength="100" x1="255" y1="168" x2="450" y2="98" style="animation-delay:1.36s"/><line class="s" pathLength="100" x1="255" y1="168" x2="450" y2="98" style="animation-delay:2.61s"/>
<line class="s" pathLength="100" x1="255" y1="168" x2="450" y2="133" style="animation-delay:1.39s"/><line class="s" pathLength="100" x1="255" y1="168" x2="450" y2="133" style="animation-delay:2.64s"/>
<line class="s" pathLength="100" x1="255" y1="168" x2="450" y2="168" style="animation-delay:1.42s"/><line class="s" pathLength="100" x1="255" y1="168" x2="450" y2="168" style="animation-delay:2.67s"/>

<!-- ═══ SIGNALS L3→L4 ═══ -->
<line class="s" pathLength="100" x1="450" y1="28" x2="645" y2="28" style="animation-delay:1.40s"/><line class="s" pathLength="100" x1="450" y1="28" x2="645" y2="28" style="animation-delay:2.65s"/>
<line class="s" pathLength="100" x1="450" y1="28" x2="645" y2="63" style="animation-delay:1.43s"/><line class="s" pathLength="100" x1="450" y1="28" x2="645" y2="63" style="animation-delay:2.68s"/>
<line class="s" pathLength="100" x1="450" y1="28" x2="645" y2="98" style="animation-delay:1.46s"/><line class="s" pathLength="100" x1="450" y1="28" x2="645" y2="98" style="animation-delay:2.71s"/>
<line class="s" pathLength="100" x1="450" y1="28" x2="645" y2="133" style="animation-delay:1.49s"/><line class="s" pathLength="100" x1="450" y1="28" x2="645" y2="133" style="animation-delay:2.74s"/>
<line class="s" pathLength="100" x1="450" y1="28" x2="645" y2="168" style="animation-delay:1.52s"/><line class="s" pathLength="100" x1="450" y1="28" x2="645" y2="168" style="animation-delay:2.77s"/>
<line class="s" pathLength="100" x1="450" y1="63" x2="645" y2="28" style="animation-delay:1.55s"/><line class="s" pathLength="100" x1="450" y1="63" x2="645" y2="28" style="animation-delay:2.80s"/>
<line class="s" pathLength="100" x1="450" y1="63" x2="645" y2="63" style="animation-delay:1.58s"/><line class="s" pathLength="100" x1="450" y1="63" x2="645" y2="63" style="animation-delay:2.83s"/>
<line class="s" pathLength="100" x1="450" y1="63" x2="645" y2="98" style="animation-delay:1.61s"/><line class="s" pathLength="100" x1="450" y1="63" x2="645" y2="98" style="animation-delay:2.86s"/>
<line class="s" pathLength="100" x1="450" y1="63" x2="645" y2="133" style="animation-delay:1.64s"/><line class="s" pathLength="100" x1="450" y1="63" x2="645" y2="133" style="animation-delay:2.89s"/>
<line class="s" pathLength="100" x1="450" y1="63" x2="645" y2="168" style="animation-delay:1.67s"/><line class="s" pathLength="100" x1="450" y1="63" x2="645" y2="168" style="animation-delay:2.92s"/>
<line class="s" pathLength="100" x1="450" y1="98" x2="645" y2="28" style="animation-delay:1.70s"/><line class="s" pathLength="100" x1="450" y1="98" x2="645" y2="28" style="animation-delay:2.95s"/>
<line class="s" pathLength="100" x1="450" y1="98" x2="645" y2="63" style="animation-delay:1.73s"/><line class="s" pathLength="100" x1="450" y1="98" x2="645" y2="63" style="animation-delay:2.98s"/>
<line class="s" pathLength="100" x1="450" y1="98" x2="645" y2="98" style="animation-delay:1.76s"/><line class="s" pathLength="100" x1="450" y1="98" x2="645" y2="98" style="animation-delay:3.01s"/>
<line class="s" pathLength="100" x1="450" y1="98" x2="645" y2="133" style="animation-delay:1.79s"/><line class="s" pathLength="100" x1="450" y1="98" x2="645" y2="133" style="animation-delay:3.04s"/>
<line class="s" pathLength="100" x1="450" y1="98" x2="645" y2="168" style="animation-delay:1.82s"/><line class="s" pathLength="100" x1="450" y1="98" x2="645" y2="168" style="animation-delay:3.07s"/>
<line class="s" pathLength="100" x1="450" y1="133" x2="645" y2="28" style="animation-delay:1.85s"/><line class="s" pathLength="100" x1="450" y1="133" x2="645" y2="28" style="animation-delay:3.10s"/>
<line class="s" pathLength="100" x1="450" y1="133" x2="645" y2="63" style="animation-delay:1.88s"/><line class="s" pathLength="100" x1="450" y1="133" x2="645" y2="63" style="animation-delay:3.13s"/>
<line class="s" pathLength="100" x1="450" y1="133" x2="645" y2="98" style="animation-delay:1.91s"/><line class="s" pathLength="100" x1="450" y1="133" x2="645" y2="98" style="animation-delay:3.16s"/>
<line class="s" pathLength="100" x1="450" y1="133" x2="645" y2="133" style="animation-delay:1.94s"/><line class="s" pathLength="100" x1="450" y1="133" x2="645" y2="133" style="animation-delay:3.19s"/>
<line class="s" pathLength="100" x1="450" y1="133" x2="645" y2="168" style="animation-delay:1.97s"/><line class="s" pathLength="100" x1="450" y1="133" x2="645" y2="168" style="animation-delay:3.22s"/>
<line class="s" pathLength="100" x1="450" y1="168" x2="645" y2="28" style="animation-delay:2.00s"/><line class="s" pathLength="100" x1="450" y1="168" x2="645" y2="28" style="animation-delay:3.25s"/>
<line class="s" pathLength="100" x1="450" y1="168" x2="645" y2="63" style="animation-delay:2.03s"/><line class="s" pathLength="100" x1="450" y1="168" x2="645" y2="63" style="animation-delay:3.28s"/>
<line class="s" pathLength="100" x1="450" y1="168" x2="645" y2="98" style="animation-delay:2.06s"/><line class="s" pathLength="100" x1="450" y1="168" x2="645" y2="98" style="animation-delay:3.31s"/>
<line class="s" pathLength="100" x1="450" y1="168" x2="645" y2="133" style="animation-delay:2.09s"/><line class="s" pathLength="100" x1="450" y1="168" x2="645" y2="133" style="animation-delay:3.34s"/>
<line class="s" pathLength="100" x1="450" y1="168" x2="645" y2="168" style="animation-delay:2.12s"/><line class="s" pathLength="100" x1="450" y1="168" x2="645" y2="168" style="animation-delay:3.37s"/>

<!-- ═══ SIGNALS L4→L5 ═══ -->
<line class="s" pathLength="100" x1="645" y1="28"  x2="820" y2="60"  style="animation-delay:2.10s"/><line class="s" pathLength="100" x1="645" y1="28"  x2="820" y2="60"  style="animation-delay:3.35s"/>
<line class="s" pathLength="100" x1="645" y1="28"  x2="820" y2="100" style="animation-delay:2.14s"/><line class="s" pathLength="100" x1="645" y1="28"  x2="820" y2="100" style="animation-delay:3.39s"/>
<line class="s" pathLength="100" x1="645" y1="28"  x2="820" y2="140" style="animation-delay:2.18s"/><line class="s" pathLength="100" x1="645" y1="28"  x2="820" y2="140" style="animation-delay:3.43s"/>
<line class="s" pathLength="100" x1="645" y1="63"  x2="820" y2="60"  style="animation-delay:2.22s"/><line class="s" pathLength="100" x1="645" y1="63"  x2="820" y2="60"  style="animation-delay:3.47s"/>
<line class="s" pathLength="100" x1="645" y1="63"  x2="820" y2="100" style="animation-delay:2.26s"/><line class="s" pathLength="100" x1="645" y1="63"  x2="820" y2="100" style="animation-delay:3.51s"/>
<line class="s" pathLength="100" x1="645" y1="63"  x2="820" y2="140" style="animation-delay:2.30s"/><line class="s" pathLength="100" x1="645" y1="63"  x2="820" y2="140" style="animation-delay:3.55s"/>
<line class="s" pathLength="100" x1="645" y1="98"  x2="820" y2="60"  style="animation-delay:2.34s"/><line class="s" pathLength="100" x1="645" y1="98"  x2="820" y2="60"  style="animation-delay:3.59s"/>
<line class="s" pathLength="100" x1="645" y1="98"  x2="820" y2="100" style="animation-delay:2.38s"/><line class="s" pathLength="100" x1="645" y1="98"  x2="820" y2="100" style="animation-delay:3.63s"/>
<line class="s" pathLength="100" x1="645" y1="98"  x2="820" y2="140" style="animation-delay:2.42s"/><line class="s" pathLength="100" x1="645" y1="98"  x2="820" y2="140" style="animation-delay:3.67s"/>
<line class="s" pathLength="100" x1="645" y1="133" x2="820" y2="60"  style="animation-delay:2.46s"/><line class="s" pathLength="100" x1="645" y1="133" x2="820" y2="60"  style="animation-delay:3.71s"/>
<line class="s" pathLength="100" x1="645" y1="133" x2="820" y2="100" style="animation-delay:2.50s"/><line class="s" pathLength="100" x1="645" y1="133" x2="820" y2="100" style="animation-delay:3.75s"/>
<line class="s" pathLength="100" x1="645" y1="133" x2="820" y2="140" style="animation-delay:2.54s"/><line class="s" pathLength="100" x1="645" y1="133" x2="820" y2="140" style="animation-delay:3.79s"/>
<line class="s" pathLength="100" x1="645" y1="168" x2="820" y2="60"  style="animation-delay:2.58s"/><line class="s" pathLength="100" x1="645" y1="168" x2="820" y2="60"  style="animation-delay:3.83s"/>
<line class="s" pathLength="100" x1="645" y1="168" x2="820" y2="100" style="animation-delay:2.62s"/><line class="s" pathLength="100" x1="645" y1="168" x2="820" y2="100" style="animation-delay:3.87s"/>
<line class="s" pathLength="100" x1="645" y1="168" x2="820" y2="140" style="animation-delay:2.66s"/><line class="s" pathLength="100" x1="645" y1="168" x2="820" y2="140" style="animation-delay:3.91s"/>

<!-- ═══ SKIP SIGNALS ═══ -->
<path class="sk" pathLength="100" d="M255,28 C350,6 550,6 645,28" style="animation-delay:1.0s"/>
<path class="sk" pathLength="100" d="M255,28 C350,6 550,6 645,28" style="animation-delay:2.5s"/>
<path class="sk" pathLength="100" d="M255,168 C350,194 550,194 645,168" style="animation-delay:1.1s"/>
<path class="sk" pathLength="100" d="M255,168 C350,194 550,194 645,168" style="animation-delay:2.6s"/>

<!-- ═══ NODE BOXES ═══ -->
<!-- L1 -->
<rect class="nb" x="71" y="52" width="18" height="16" style="animation-delay:0s"/>
<rect class="nb" x="71" y="92" width="18" height="16" style="animation-delay:.3s"/>
<rect class="nb" x="71" y="132" width="18" height="16" style="animation-delay:.6s"/>
<!-- L2 -->
<rect class="nb" x="246" y="20" width="18" height="16" style="animation-delay:.2s"/>
<rect class="nb" x="246" y="55" width="18" height="16" style="animation-delay:.4s"/>
<rect class="nb" x="246" y="90" width="18" height="16" style="animation-delay:.6s"/>
<rect class="nb" x="246" y="125" width="18" height="16" style="animation-delay:.8s"/>
<rect class="nb" x="246" y="160" width="18" height="16" style="animation-delay:1.0s"/>
<!-- L3 -->
<rect class="nb" x="441" y="20" width="18" height="16" style="animation-delay:.5s"/>
<rect class="nb" x="441" y="55" width="18" height="16" style="animation-delay:.7s"/>
<rect class="nb" x="441" y="90" width="18" height="16" style="animation-delay:.9s"/>
<rect class="nb" x="441" y="125" width="18" height="16" style="animation-delay:1.1s"/>
<rect class="nb" x="441" y="160" width="18" height="16" style="animation-delay:1.3s"/>
<!-- L4 -->
<rect class="nb" x="636" y="20" width="18" height="16" style="animation-delay:.8s"/>
<rect class="nb" x="636" y="55" width="18" height="16" style="animation-delay:1.0s"/>
<rect class="nb" x="636" y="90" width="18" height="16" style="animation-delay:1.2s"/>
<rect class="nb" x="636" y="125" width="18" height="16" style="animation-delay:1.4s"/>
<rect class="nb" x="636" y="160" width="18" height="16" style="animation-delay:1.6s"/>
<!-- L5 -->
<rect class="nb" x="811" y="52" width="18" height="16" style="animation-delay:1.3s"/>
<rect class="nb" x="811" y="92" width="18" height="16" style="animation-delay:1.5s"/>
<rect class="nb" x="811" y="132" width="18" height="16" style="animation-delay:1.7s"/>

<!-- ═══ NODE CHARACTERS ═══ -->
<!-- L1 -->
<text class="nc" x="80" y="61">*</text>
<text class="nc" x="80" y="101">*</text>
<text class="nc" x="80" y="141">*</text>
<!-- L2 -->
<text class="nc" x="255" y="29">*</text>
<text class="nc" x="255" y="64">*</text>
<text class="nc" x="255" y="99">*</text>
<text class="nc" x="255" y="134">*</text>
<text class="nc" x="255" y="169">*</text>
<!-- L3 -->
<text class="nc" x="450" y="29">*</text>
<text class="nc" x="450" y="64">*</text>
<text class="nc" x="450" y="99">*</text>
<text class="nc" x="450" y="134">*</text>
<text class="nc" x="450" y="169">*</text>
<!-- L4 -->
<text class="nc" x="645" y="29">*</text>
<text class="nc" x="645" y="64">*</text>
<text class="nc" x="645" y="99">*</text>
<text class="nc" x="645" y="134">*</text>
<text class="nc" x="645" y="169">*</text>
<!-- L5 -->
<text class="nc" x="820" y="61">*</text>
<text class="nc" x="820" y="101">*</text>
<text class="nc" x="820" y="141">*</text>

<!-- ═══ LAYER LABELS ═══ -->
<text class="lbl2" x="80"  y="195">[ INPUT ]</text>
<text class="lbl"  x="255" y="195">[ DENSE·1 ]</text>
<text class="lbl"  x="450" y="195">[ DENSE·2 ]</text>
<text class="lbl"  x="645" y="195">[ DENSE·3 ]</text>
<text class="lbl2" x="820" y="195">[ OUTPUT ]</text>

<!-- SKIP LABEL -->
<text class="deco" x="450" y="19" text-anchor="middle">&#x2500;&#x2500; skip connections (residual) &#x2500;&#x2500;</text>

<!-- BLINKING CURSOR -->
<text class="cur" x="880" y="109">&#x2588;</text>
</svg>
