<svg xmlns="http://www.w3.org/2000/svg" width="100%" viewBox="0 0 900 220">
<defs><style>
  @keyframes flow{from{stroke-dashoffset:0}to{stroke-dashoffset:-100}}
  @keyframes sp{0%,100%{stroke-opacity:.12}50%{stroke-opacity:1}}
  @keyframes hl{0%,100%{opacity:0}50%{opacity:.18}}
  .bg{fill:#0d1117}
  .gr{stroke:#161b22;stroke-width:.5;fill:none}
  .e{stroke:#1a2332;stroke-width:.7;fill:none}
  .s12{stroke:#ff7b72;stroke-width:1.6;fill:none;stroke-dasharray:4 96;stroke-linecap:round;animation:flow 2.5s linear infinite}
  .s23{stroke:#d2a8ff;stroke-width:1.6;fill:none;stroke-dasharray:4 96;stroke-linecap:round;animation:flow 2.5s linear infinite}
  .s34{stroke:#79c0ff;stroke-width:1.6;fill:none;stroke-dasharray:4 96;stroke-linecap:round;animation:flow 2.5s linear infinite}
  .s45{stroke:#7ee787;stroke-width:1.6;fill:none;stroke-dasharray:4 96;stroke-linecap:round;animation:flow 2.5s linear infinite}
  .ssk{stroke:#e3b341;stroke-width:1.1;fill:none;stroke-dasharray:3 97;stroke-linecap:round;animation:flow 3s linear infinite}
  .hl1{fill:#ff7b72;animation:hl 2.5s ease-in-out infinite}
  .hl2{fill:#d2a8ff;animation:hl 2.5s ease-in-out infinite}
  .hl3{fill:#79c0ff;animation:hl 2.5s ease-in-out infinite}
  .hl4{fill:#56d364;animation:hl 2.5s ease-in-out infinite}
  .hl5{fill:#7ee787;animation:hl 2.5s ease-in-out infinite}
  .n1{fill:#0d1117;stroke:#ff7b72;stroke-width:1.8;animation:sp 2.5s ease-in-out infinite}
  .n2{fill:#0d1117;stroke:#d2a8ff;stroke-width:1.8;animation:sp 2.5s ease-in-out infinite}
  .n3{fill:#0d1117;stroke:#79c0ff;stroke-width:1.8;animation:sp 2.5s ease-in-out infinite}
  .n4{fill:#0d1117;stroke:#56d364;stroke-width:1.8;animation:sp 2.5s ease-in-out infinite}
  .n5{fill:#0d1117;stroke:#7ee787;stroke-width:1.8;animation:sp 2.5s ease-in-out infinite}
  .lbl{font-family:'Courier New',monospace;font-size:8.5px;fill:#30363d;text-anchor:middle}
  .ann{font-family:'Courier New',monospace;font-size:7.5px;fill:#21262d;text-anchor:middle}
  .tag{font-family:'Courier New',monospace;font-size:8px;fill:#21262d;text-anchor:end}
  .eq{font-family:'Courier New',monospace;font-size:7px;fill:#1f2937;text-anchor:middle}
</style></defs>

<!-- BACKGROUND -->
<rect class="bg" width="900" height="220"/>
<line class="gr" x1="0" y1=".5" x2="900" y2=".5"/>
<line class="gr" x1="0" y1="219.5" x2="900" y2="219.5"/>

<!-- GRID LINES horizontal -->
<line class="gr" stroke-dasharray="2 16" x1="0" y1="28" x2="900" y2="28"/>
<line class="gr" stroke-dasharray="2 16" x1="0" y1="63" x2="900" y2="63"/>
<line class="gr" stroke-dasharray="2 16" x1="0" y1="98" x2="900" y2="98"/>
<line class="gr" stroke-dasharray="2 16" x1="0" y1="133" x2="900" y2="133"/>
<line class="gr" stroke-dasharray="2 16" x1="0" y1="168" x2="900" y2="168"/>

<!-- GRID LINES vertical (at layer columns) -->
<line class="gr" stroke-dasharray="2 18" x1="80"  y1="0" x2="80"  y2="220"/>
<line class="gr" stroke-dasharray="2 18" x1="255" y1="0" x2="255" y2="220"/>
<line class="gr" stroke-dasharray="2 18" x1="450" y1="0" x2="450" y2="220"/>
<line class="gr" stroke-dasharray="2 18" x1="645" y1="0" x2="645" y2="220"/>
<line class="gr" stroke-dasharray="2 18" x1="820" y1="0" x2="820" y2="220"/>

<!-- SKIP CONNECTIONS (behind all edges) -->
<path d="M255,28 C350,4 550,4 645,28" stroke="#e3b341" stroke-width="1" stroke-dasharray="4 5" fill="none" opacity=".35"/>
<path d="M255,168 C350,196 550,196 645,168" stroke="#e3b341" stroke-width="1" stroke-dasharray="4 5" fill="none" opacity=".35"/>

<!-- ═══ BASE EDGES L1→L2 ═══ -->
<line class="e" x1="80" y1="60"  x2="255" y2="28"/> <line class="e" x1="80" y1="60"  x2="255" y2="63"/>
<line class="e" x1="80" y1="60"  x2="255" y2="98"/> <line class="e" x1="80" y1="60"  x2="255" y2="133"/>
<line class="e" x1="80" y1="60"  x2="255" y2="168"/>
<line class="e" x1="80" y1="100" x2="255" y2="28"/> <line class="e" x1="80" y1="100" x2="255" y2="63"/>
<line class="e" x1="80" y1="100" x2="255" y2="98"/> <line class="e" x1="80" y1="100" x2="255" y2="133"/>
<line class="e" x1="80" y1="100" x2="255" y2="168"/>
<line class="e" x1="80" y1="140" x2="255" y2="28"/> <line class="e" x1="80" y1="140" x2="255" y2="63"/>
<line class="e" x1="80" y1="140" x2="255" y2="98"/> <line class="e" x1="80" y1="140" x2="255" y2="133"/>
<line class="e" x1="80" y1="140" x2="255" y2="168"/>

<!-- ═══ BASE EDGES L2→L3 ═══ -->
<line class="e" x1="255" y1="28"  x2="450" y2="28"/> <line class="e" x1="255" y1="28"  x2="450" y2="63"/>
<line class="e" x1="255" y1="28"  x2="450" y2="98"/> <line class="e" x1="255" y1="28"  x2="450" y2="133"/>
<line class="e" x1="255" y1="28"  x2="450" y2="168"/>
<line class="e" x1="255" y1="63"  x2="450" y2="28"/> <line class="e" x1="255" y1="63"  x2="450" y2="63"/>
<line class="e" x1="255" y1="63"  x2="450" y2="98"/> <line class="e" x1="255" y1="63"  x2="450" y2="133"/>
<line class="e" x1="255" y1="63"  x2="450" y2="168"/>
<line class="e" x1="255" y1="98"  x2="450" y2="28"/> <line class="e" x1="255" y1="98"  x2="450" y2="63"/>
<line class="e" x1="255" y1="98"  x2="450" y2="98"/> <line class="e" x1="255" y1="98"  x2="450" y2="133"/>
<line class="e" x1="255" y1="98"  x2="450" y2="168"/>
<line class="e" x1="255" y1="133" x2="450" y2="28"/> <line class="e" x1="255" y1="133" x2="450" y2="63"/>
<line class="e" x1="255" y1="133" x2="450" y2="98"/> <line class="e" x1="255" y1="133" x2="450" y2="133"/>
<line class="e" x1="255" y1="133" x2="450" y2="168"/>
<line class="e" x1="255" y1="168" x2="450" y2="28"/> <line class="e" x1="255" y1="168" x2="450" y2="63"/>
<line class="e" x1="255" y1="168" x2="450" y2="98"/> <line class="e" x1="255" y1="168" x2="450" y2="133"/>
<line class="e" x1="255" y1="168" x2="450" y2="168"/>

<!-- ═══ BASE EDGES L3→L4 ═══ -->
<line class="e" x1="450" y1="28"  x2="645" y2="28"/> <line class="e" x1="450" y1="28"  x2="645" y2="63"/>
<line class="e" x1="450" y1="28"  x2="645" y2="98"/> <line class="e" x1="450" y1="28"  x2="645" y2="133"/>
<line class="e" x1="450" y1="28"  x2="645" y2="168"/>
<line class="e" x1="450" y1="63"  x2="645" y2="28"/> <line class="e" x1="450" y1="63"  x2="645" y2="63"/>
<line class="e" x1="450" y1="63"  x2="645" y2="98"/> <line class="e" x1="450" y1="63"  x2="645" y2="133"/>
<line class="e" x1="450" y1="63"  x2="645" y2="168"/>
<line class="e" x1="450" y1="98"  x2="645" y2="28"/> <line class="e" x1="450" y1="98"  x2="645" y2="63"/>
<line class="e" x1="450" y1="98"  x2="645" y2="98"/> <line class="e" x1="450" y1="98"  x2="645" y2="133"/>
<line class="e" x1="450" y1="98"  x2="645" y2="168"/>
<line class="e" x1="450" y1="133" x2="645" y2="28"/> <line class="e" x1="450" y1="133" x2="645" y2="63"/>
<line class="e" x1="450" y1="133" x2="645" y2="98"/> <line class="e" x1="450" y1="133" x2="645" y2="133"/>
<line class="e" x1="450" y1="133" x2="645" y2="168"/>
<line class="e" x1="450" y1="168" x2="645" y2="28"/> <line class="e" x1="450" y1="168" x2="645" y2="63"/>
<line class="e" x1="450" y1="168" x2="645" y2="98"/> <line class="e" x1="450" y1="168" x2="645" y2="133"/>
<line class="e" x1="450" y1="168" x2="645" y2="168"/>

<!-- ═══ BASE EDGES L4→L5 ═══ -->
<line class="e" x1="645" y1="28"  x2="820" y2="60"/>  <line class="e" x1="645" y1="28"  x2="820" y2="100"/>
<line class="e" x1="645" y1="28"  x2="820" y2="140"/>
<line class="e" x1="645" y1="63"  x2="820" y2="60"/>  <line class="e" x1="645" y1="63"  x2="820" y2="100"/>
<line class="e" x1="645" y1="63"  x2="820" y2="140"/>
<line class="e" x1="645" y1="98"  x2="820" y2="60"/>  <line class="e" x1="645" y1="98"  x2="820" y2="100"/>
<line class="e" x1="645" y1="98"  x2="820" y2="140"/>
<line class="e" x1="645" y1="133" x2="820" y2="60"/>  <line class="e" x1="645" y1="133" x2="820" y2="100"/>
<line class="e" x1="645" y1="133" x2="820" y2="140"/>
<line class="e" x1="645" y1="168" x2="820" y2="60"/>  <line class="e" x1="645" y1="168" x2="820" y2="100"/>
<line class="e" x1="645" y1="168" x2="820" y2="140"/>

<!-- ═══ SIGNALS L1→L2 (2 pulses per wire) ═══ -->
<line class="s12" pathLength="100" x1="80" y1="60" x2="255" y2="28" style="animation-delay:.00s"/><line class="s12" pathLength="100" x1="80" y1="60" x2="255" y2="28" style="animation-delay:1.25s"/>
<line class="s12" pathLength="100" x1="80" y1="60" x2="255" y2="63" style="animation-delay:.04s"/><line class="s12" pathLength="100" x1="80" y1="60" x2="255" y2="63" style="animation-delay:1.29s"/>
<line class="s12" pathLength="100" x1="80" y1="60" x2="255" y2="98" style="animation-delay:.08s"/><line class="s12" pathLength="100" x1="80" y1="60" x2="255" y2="98" style="animation-delay:1.33s"/>
<line class="s12" pathLength="100" x1="80" y1="60" x2="255" y2="133" style="animation-delay:.12s"/><line class="s12" pathLength="100" x1="80" y1="60" x2="255" y2="133" style="animation-delay:1.37s"/>
<line class="s12" pathLength="100" x1="80" y1="60" x2="255" y2="168" style="animation-delay:.16s"/><line class="s12" pathLength="100" x1="80" y1="60" x2="255" y2="168" style="animation-delay:1.41s"/>
<line class="s12" pathLength="100" x1="80" y1="100" x2="255" y2="28" style="animation-delay:.20s"/><line class="s12" pathLength="100" x1="80" y1="100" x2="255" y2="28" style="animation-delay:1.45s"/>
<line class="s12" pathLength="100" x1="80" y1="100" x2="255" y2="63" style="animation-delay:.24s"/><line class="s12" pathLength="100" x1="80" y1="100" x2="255" y2="63" style="animation-delay:1.49s"/>
<line class="s12" pathLength="100" x1="80" y1="100" x2="255" y2="98" style="animation-delay:.28s"/><line class="s12" pathLength="100" x1="80" y1="100" x2="255" y2="98" style="animation-delay:1.53s"/>
<line class="s12" pathLength="100" x1="80" y1="100" x2="255" y2="133" style="animation-delay:.32s"/><line class="s12" pathLength="100" x1="80" y1="100" x2="255" y2="133" style="animation-delay:1.57s"/>
<line class="s12" pathLength="100" x1="80" y1="100" x2="255" y2="168" style="animation-delay:.36s"/><line class="s12" pathLength="100" x1="80" y1="100" x2="255" y2="168" style="animation-delay:1.61s"/>
<line class="s12" pathLength="100" x1="80" y1="140" x2="255" y2="28" style="animation-delay:.40s"/><line class="s12" pathLength="100" x1="80" y1="140" x2="255" y2="28" style="animation-delay:1.65s"/>
<line class="s12" pathLength="100" x1="80" y1="140" x2="255" y2="63" style="animation-delay:.44s"/><line class="s12" pathLength="100" x1="80" y1="140" x2="255" y2="63" style="animation-delay:1.69s"/>
<line class="s12" pathLength="100" x1="80" y1="140" x2="255" y2="98" style="animation-delay:.48s"/><line class="s12" pathLength="100" x1="80" y1="140" x2="255" y2="98" style="animation-delay:1.73s"/>
<line class="s12" pathLength="100" x1="80" y1="140" x2="255" y2="133" style="animation-delay:.52s"/><line class="s12" pathLength="100" x1="80" y1="140" x2="255" y2="133" style="animation-delay:1.77s"/>
<line class="s12" pathLength="100" x1="80" y1="140" x2="255" y2="168" style="animation-delay:.56s"/><line class="s12" pathLength="100" x1="80" y1="140" x2="255" y2="168" style="animation-delay:1.81s"/>

<!-- ═══ SIGNALS L2→L3 ═══ -->
<line class="s23" pathLength="100" x1="255" y1="28" x2="450" y2="28" style="animation-delay:.70s"/><line class="s23" pathLength="100" x1="255" y1="28" x2="450" y2="28" style="animation-delay:1.95s"/>
<line class="s23" pathLength="100" x1="255" y1="28" x2="450" y2="63" style="animation-delay:.73s"/><line class="s23" pathLength="100" x1="255" y1="28" x2="450" y2="63" style="animation-delay:1.98s"/>
<line class="s23" pathLength="100" x1="255" y1="28" x2="450" y2="98" style="animation-delay:.76s"/><line class="s23" pathLength="100" x1="255" y1="28" x2="450" y2="98" style="animation-delay:2.01s"/>
<line class="s23" pathLength="100" x1="255" y1="28" x2="450" y2="133" style="animation-delay:.79s"/><line class="s23" pathLength="100" x1="255" y1="28" x2="450" y2="133" style="animation-delay:2.04s"/>
<line class="s23" pathLength="100" x1="255" y1="28" x2="450" y2="168" style="animation-delay:.82s"/><line class="s23" pathLength="100" x1="255" y1="28" x2="450" y2="168" style="animation-delay:2.07s"/>
<line class="s23" pathLength="100" x1="255" y1="63" x2="450" y2="28" style="animation-delay:.85s"/><line class="s23" pathLength="100" x1="255" y1="63" x2="450" y2="28" style="animation-delay:2.10s"/>
<line class="s23" pathLength="100" x1="255" y1="63" x2="450" y2="63" style="animation-delay:.88s"/><line class="s23" pathLength="100" x1="255" y1="63" x2="450" y2="63" style="animation-delay:2.13s"/>
<line class="s23" pathLength="100" x1="255" y1="63" x2="450" y2="98" style="animation-delay:.91s"/><line class="s23" pathLength="100" x1="255" y1="63" x2="450" y2="98" style="animation-delay:2.16s"/>
<line class="s23" pathLength="100" x1="255" y1="63" x2="450" y2="133" style="animation-delay:.94s"/><line class="s23" pathLength="100" x1="255" y1="63" x2="450" y2="133" style="animation-delay:2.19s"/>
<line class="s23" pathLength="100" x1="255" y1="63" x2="450" y2="168" style="animation-delay:.97s"/><line class="s23" pathLength="100" x1="255" y1="63" x2="450" y2="168" style="animation-delay:2.22s"/>
<line class="s23" pathLength="100" x1="255" y1="98" x2="450" y2="28" style="animation-delay:1.00s"/><line class="s23" pathLength="100" x1="255" y1="98" x2="450" y2="28" style="animation-delay:2.25s"/>
<line class="s23" pathLength="100" x1="255" y1="98" x2="450" y2="63" style="animation-delay:1.03s"/><line class="s23" pathLength="100" x1="255" y1="98" x2="450" y2="63" style="animation-delay:2.28s"/>
<line class="s23" pathLength="100" x1="255" y1="98" x2="450" y2="98" style="animation-delay:1.06s"/><line class="s23" pathLength="100" x1="255" y1="98" x2="450" y2="98" style="animation-delay:2.31s"/>
<line class="s23" pathLength="100" x1="255" y1="98" x2="450" y2="133" style="animation-delay:1.09s"/><line class="s23" pathLength="100" x1="255" y1="98" x2="450" y2="133" style="animation-delay:2.34s"/>
<line class="s23" pathLength="100" x1="255" y1="98" x2="450" y2="168" style="animation-delay:1.12s"/><line class="s23" pathLength="100" x1="255" y1="98" x2="450" y2="168" style="animation-delay:2.37s"/>
<line class="s23" pathLength="100" x1="255" y1="133" x2="450" y2="28" style="animation-delay:1.15s"/><line class="s23" pathLength="100" x1="255" y1="133" x2="450" y2="28" style="animation-delay:2.40s"/>
<line class="s23" pathLength="100" x1="255" y1="133" x2="450" y2="63" style="animation-delay:1.18s"/><line class="s23" pathLength="100" x1="255" y1="133" x2="450" y2="63" style="animation-delay:2.43s"/>
<line class="s23" pathLength="100" x1="255" y1="133" x2="450" y2="98" style="animation-delay:1.21s"/><line class="s23" pathLength="100" x1="255" y1="133" x2="450" y2="98" style="animation-delay:2.46s"/>
<line class="s23" pathLength="100" x1="255" y1="133" x2="450" y2="133" style="animation-delay:1.24s"/><line class="s23" pathLength="100" x1="255" y1="133" x2="450" y2="133" style="animation-delay:2.49s"/>
<line class="s23" pathLength="100" x1="255" y1="133" x2="450" y2="168" style="animation-delay:1.27s"/><line class="s23" pathLength="100" x1="255" y1="133" x2="450" y2="168" style="animation-delay:2.52s"/>
<line class="s23" pathLength="100" x1="255" y1="168" x2="450" y2="28" style="animation-delay:1.30s"/><line class="s23" pathLength="100" x1="255" y1="168" x2="450" y2="28" style="animation-delay:2.55s"/>
<line class="s23" pathLength="100" x1="255" y1="168" x2="450" y2="63" style="animation-delay:1.33s"/><line class="s23" pathLength="100" x1="255" y1="168" x2="450" y2="63" style="animation-delay:2.58s"/>
<line class="s23" pathLength="100" x1="255" y1="168" x2="450" y2="98" style="animation-delay:1.36s"/><line class="s23" pathLength="100" x1="255" y1="168" x2="450" y2="98" style="animation-delay:2.61s"/>
<line class="s23" pathLength="100" x1="255" y1="168" x2="450" y2="133" style="animation-delay:1.39s"/><line class="s23" pathLength="100" x1="255" y1="168" x2="450" y2="133" style="animation-delay:2.64s"/>
<line class="s23" pathLength="100" x1="255" y1="168" x2="450" y2="168" style="animation-delay:1.42s"/><line class="s23" pathLength="100" x1="255" y1="168" x2="450" y2="168" style="animation-delay:2.67s"/>

<!-- ═══ SIGNALS L3→L4 ═══ -->
<line class="s34" pathLength="100" x1="450" y1="28" x2="645" y2="28" style="animation-delay:1.40s"/><line class="s34" pathLength="100" x1="450" y1="28" x2="645" y2="28" style="animation-delay:2.65s"/>
<line class="s34" pathLength="100" x1="450" y1="28" x2="645" y2="63" style="animation-delay:1.43s"/><line class="s34" pathLength="100" x1="450" y1="28" x2="645" y2="63" style="animation-delay:2.68s"/>
<line class="s34" pathLength="100" x1="450" y1="28" x2="645" y2="98" style="animation-delay:1.46s"/><line class="s34" pathLength="100" x1="450" y1="28" x2="645" y2="98" style="animation-delay:2.71s"/>
<line class="s34" pathLength="100" x1="450" y1="28" x2="645" y2="133" style="animation-delay:1.49s"/><line class="s34" pathLength="100" x1="450" y1="28" x2="645" y2="133" style="animation-delay:2.74s"/>
<line class="s34" pathLength="100" x1="450" y1="28" x2="645" y2="168" style="animation-delay:1.52s"/><line class="s34" pathLength="100" x1="450" y1="28" x2="645" y2="168" style="animation-delay:2.77s"/>
<line class="s34" pathLength="100" x1="450" y1="63" x2="645" y2="28" style="animation-delay:1.55s"/><line class="s34" pathLength="100" x1="450" y1="63" x2="645" y2="28" style="animation-delay:2.80s"/>
<line class="s34" pathLength="100" x1="450" y1="63" x2="645" y2="63" style="animation-delay:1.58s"/><line class="s34" pathLength="100" x1="450" y1="63" x2="645" y2="63" style="animation-delay:2.83s"/>
<line class="s34" pathLength="100" x1="450" y1="63" x2="645" y2="98" style="animation-delay:1.61s"/><line class="s34" pathLength="100" x1="450" y1="63" x2="645" y2="98" style="animation-delay:2.86s"/>
<line class="s34" pathLength="100" x1="450" y1="63" x2="645" y2="133" style="animation-delay:1.64s"/><line class="s34" pathLength="100" x1="450" y1="63" x2="645" y2="133" style="animation-delay:2.89s"/>
<line class="s34" pathLength="100" x1="450" y1="63" x2="645" y2="168" style="animation-delay:1.67s"/><line class="s34" pathLength="100" x1="450" y1="63" x2="645" y2="168" style="animation-delay:2.92s"/>
<line class="s34" pathLength="100" x1="450" y1="98" x2="645" y2="28" style="animation-delay:1.70s"/><line class="s34" pathLength="100" x1="450" y1="98" x2="645" y2="28" style="animation-delay:2.95s"/>
<line class="s34" pathLength="100" x1="450" y1="98" x2="645" y2="63" style="animation-delay:1.73s"/><line class="s34" pathLength="100" x1="450" y1="98" x2="645" y2="63" style="animation-delay:2.98s"/>
<line class="s34" pathLength="100" x1="450" y1="98" x2="645" y2="98" style="animation-delay:1.76s"/><line class="s34" pathLength="100" x1="450" y1="98" x2="645" y2="98" style="animation-delay:3.01s"/>
<line class="s34" pathLength="100" x1="450" y1="98" x2="645" y2="133" style="animation-delay:1.79s"/><line class="s34" pathLength="100" x1="450" y1="98" x2="645" y2="133" style="animation-delay:3.04s"/>
<line class="s34" pathLength="100" x1="450" y1="98" x2="645" y2="168" style="animation-delay:1.82s"/><line class="s34" pathLength="100" x1="450" y1="98" x2="645" y2="168" style="animation-delay:3.07s"/>
<line class="s34" pathLength="100" x1="450" y1="133" x2="645" y2="28" style="animation-delay:1.85s"/><line class="s34" pathLength="100" x1="450" y1="133" x2="645" y2="28" style="animation-delay:3.10s"/>
<line class="s34" pathLength="100" x1="450" y1="133" x2="645" y2="63" style="animation-delay:1.88s"/><line class="s34" pathLength="100" x1="450" y1="133" x2="645" y2="63" style="animation-delay:3.13s"/>
<line class="s34" pathLength="100" x1="450" y1="133" x2="645" y2="98" style="animation-delay:1.91s"/><line class="s34" pathLength="100" x1="450" y1="133" x2="645" y2="98" style="animation-delay:3.16s"/>
<line class="s34" pathLength="100" x1="450" y1="133" x2="645" y2="133" style="animation-delay:1.94s"/><line class="s34" pathLength="100" x1="450" y1="133" x2="645" y2="133" style="animation-delay:3.19s"/>
<line class="s34" pathLength="100" x1="450" y1="133" x2="645" y2="168" style="animation-delay:1.97s"/><line class="s34" pathLength="100" x1="450" y1="133" x2="645" y2="168" style="animation-delay:3.22s"/>
<line class="s34" pathLength="100" x1="450" y1="168" x2="645" y2="28" style="animation-delay:2.00s"/><line class="s34" pathLength="100" x1="450" y1="168" x2="645" y2="28" style="animation-delay:3.25s"/>
<line class="s34" pathLength="100" x1="450" y1="168" x2="645" y2="63" style="animation-delay:2.03s"/><line class="s34" pathLength="100" x1="450" y1="168" x2="645" y2="63" style="animation-delay:3.28s"/>
<line class="s34" pathLength="100" x1="450" y1="168" x2="645" y2="98" style="animation-delay:2.06s"/><line class="s34" pathLength="100" x1="450" y1="168" x2="645" y2="98" style="animation-delay:3.31s"/>
<line class="s34" pathLength="100" x1="450" y1="168" x2="645" y2="133" style="animation-delay:2.09s"/><line class="s34" pathLength="100" x1="450" y1="168" x2="645" y2="133" style="animation-delay:3.34s"/>
<line class="s34" pathLength="100" x1="450" y1="168" x2="645" y2="168" style="animation-delay:2.12s"/><line class="s34" pathLength="100" x1="450" y1="168" x2="645" y2="168" style="animation-delay:3.37s"/>

<!-- ═══ SIGNALS L4→L5 ═══ -->
<line class="s45" pathLength="100" x1="645" y1="28"  x2="820" y2="60"  style="animation-delay:2.10s"/><line class="s45" pathLength="100" x1="645" y1="28"  x2="820" y2="60"  style="animation-delay:3.35s"/>
<line class="s45" pathLength="100" x1="645" y1="28"  x2="820" y2="100" style="animation-delay:2.14s"/><line class="s45" pathLength="100" x1="645" y1="28"  x2="820" y2="100" style="animation-delay:3.39s"/>
<line class="s45" pathLength="100" x1="645" y1="28"  x2="820" y2="140" style="animation-delay:2.18s"/><line class="s45" pathLength="100" x1="645" y1="28"  x2="820" y2="140" style="animation-delay:3.43s"/>
<line class="s45" pathLength="100" x1="645" y1="63"  x2="820" y2="60"  style="animation-delay:2.22s"/><line class="s45" pathLength="100" x1="645" y1="63"  x2="820" y2="60"  style="animation-delay:3.47s"/>
<line class="s45" pathLength="100" x1="645" y1="63"  x2="820" y2="100" style="animation-delay:2.26s"/><line class="s45" pathLength="100" x1="645" y1="63"  x2="820" y2="100" style="animation-delay:3.51s"/>
<line class="s45" pathLength="100" x1="645" y1="63"  x2="820" y2="140" style="animation-delay:2.30s"/><line class="s45" pathLength="100" x1="645" y1="63"  x2="820" y2="140" style="animation-delay:3.55s"/>
<line class="s45" pathLength="100" x1="645" y1="98"  x2="820" y2="60"  style="animation-delay:2.34s"/><line class="s45" pathLength="100" x1="645" y1="98"  x2="820" y2="60"  style="animation-delay:3.59s"/>
<line class="s45" pathLength="100" x1="645" y1="98"  x2="820" y2="100" style="animation-delay:2.38s"/><line class="s45" pathLength="100" x1="645" y1="98"  x2="820" y2="100" style="animation-delay:3.63s"/>
<line class="s45" pathLength="100" x1="645" y1="98"  x2="820" y2="140" style="animation-delay:2.42s"/><line class="s45" pathLength="100" x1="645" y1="98"  x2="820" y2="140" style="animation-delay:3.67s"/>
<line class="s45" pathLength="100" x1="645" y1="133" x2="820" y2="60"  style="animation-delay:2.46s"/><line class="s45" pathLength="100" x1="645" y1="133" x2="820" y2="60"  style="animation-delay:3.71s"/>
<line class="s45" pathLength="100" x1="645" y1="133" x2="820" y2="100" style="animation-delay:2.50s"/><line class="s45" pathLength="100" x1="645" y1="133" x2="820" y2="100" style="animation-delay:3.75s"/>
<line class="s45" pathLength="100" x1="645" y1="133" x2="820" y2="140" style="animation-delay:2.54s"/><line class="s45" pathLength="100" x1="645" y1="133" x2="820" y2="140" style="animation-delay:3.79s"/>
<line class="s45" pathLength="100" x1="645" y1="168" x2="820" y2="60"  style="animation-delay:2.58s"/><line class="s45" pathLength="100" x1="645" y1="168" x2="820" y2="60"  style="animation-delay:3.83s"/>
<line class="s45" pathLength="100" x1="645" y1="168" x2="820" y2="100" style="animation-delay:2.62s"/><line class="s45" pathLength="100" x1="645" y1="168" x2="820" y2="100" style="animation-delay:3.87s"/>
<line class="s45" pathLength="100" x1="645" y1="168" x2="820" y2="140" style="animation-delay:2.66s"/><line class="s45" pathLength="100" x1="645" y1="168" x2="820" y2="140" style="animation-delay:3.91s"/>

<!-- ═══ SKIP SIGNALS ═══ -->
<path class="ssk" pathLength="100" d="M255,28 C350,4 550,4 645,28" style="animation-delay:1.0s"/>
<path class="ssk" pathLength="100" d="M255,28 C350,4 550,4 645,28" style="animation-delay:2.5s"/>
<path class="ssk" pathLength="100" d="M255,168 C350,196 550,196 645,168" style="animation-delay:1.1s"/>
<path class="ssk" pathLength="100" d="M255,168 C350,196 550,196 645,168" style="animation-delay:2.6s"/>

<!-- ═══ NODE HALOS ═══ -->
<!-- L1 -->
<circle class="hl1" cx="80" cy="60"  r="16" style="animation-delay:0s"/>
<circle class="hl1" cx="80" cy="100" r="16" style="animation-delay:.3s"/>
<circle class="hl1" cx="80" cy="140" r="16" style="animation-delay:.6s"/>
<!-- L2 -->
<circle class="hl2" cx="255" cy="28"  r="16" style="animation-delay:.2s"/>
<circle class="hl2" cx="255" cy="63"  r="16" style="animation-delay:.4s"/>
<circle class="hl2" cx="255" cy="98"  r="16" style="animation-delay:.6s"/>
<circle class="hl2" cx="255" cy="133" r="16" style="animation-delay:.8s"/>
<circle class="hl2" cx="255" cy="168" r="16" style="animation-delay:1.0s"/>
<!-- L3 -->
<circle class="hl3" cx="450" cy="28"  r="16" style="animation-delay:.5s"/>
<circle class="hl3" cx="450" cy="63"  r="16" style="animation-delay:.7s"/>
<circle class="hl3" cx="450" cy="98"  r="16" style="animation-delay:.9s"/>
<circle class="hl3" cx="450" cy="133" r="16" style="animation-delay:1.1s"/>
<circle class="hl3" cx="450" cy="168" r="16" style="animation-delay:1.3s"/>
<!-- L4 -->
<circle class="hl4" cx="645" cy="28"  r="16" style="animation-delay:.8s"/>
<circle class="hl4" cx="645" cy="63"  r="16" style="animation-delay:1.0s"/>
<circle class="hl4" cx="645" cy="98"  r="16" style="animation-delay:1.2s"/>
<circle class="hl4" cx="645" cy="133" r="16" style="animation-delay:1.4s"/>
<circle class="hl4" cx="645" cy="168" r="16" style="animation-delay:1.6s"/>
<!-- L5 -->
<circle class="hl5" cx="820" cy="60"  r="16" style="animation-delay:1.3s"/>
<circle class="hl5" cx="820" cy="100" r="16" style="animation-delay:1.5s"/>
<circle class="hl5" cx="820" cy="140" r="16" style="animation-delay:1.7s"/>

<!-- ═══ NODES ═══ -->
<!-- L1 -->
<circle class="n1" cx="80" cy="60"  r="7" style="animation-delay:0s"/>
<circle class="n1" cx="80" cy="100" r="7" style="animation-delay:.3s"/>
<circle class="n1" cx="80" cy="140" r="7" style="animation-delay:.6s"/>
<!-- L2 -->
<circle class="n2" cx="255" cy="28"  r="7" style="animation-delay:.2s"/>
<circle class="n2" cx="255" cy="63"  r="7" style="animation-delay:.4s"/>
<circle class="n2" cx="255" cy="98"  r="7" style="animation-delay:.6s"/>
<circle class="n2" cx="255" cy="133" r="7" style="animation-delay:.8s"/>
<circle class="n2" cx="255" cy="168" r="7" style="animation-delay:1.0s"/>
<!-- L3 -->
<circle class="n3" cx="450" cy="28"  r="7" style="animation-delay:.5s"/>
<circle class="n3" cx="450" cy="63"  r="7" style="animation-delay:.7s"/>
<circle class="n3" cx="450" cy="98"  r="7" style="animation-delay:.9s"/>
<circle class="n3" cx="450" cy="133" r="7" style="animation-delay:1.1s"/>
<circle class="n3" cx="450" cy="168" r="7" style="animation-delay:1.3s"/>
<!-- L4 -->
<circle class="n4" cx="645" cy="28"  r="7" style="animation-delay:.8s"/>
<circle class="n4" cx="645" cy="63"  r="7" style="animation-delay:1.0s"/>
<circle class="n4" cx="645" cy="98"  r="7" style="animation-delay:1.2s"/>
<circle class="n4" cx="645" cy="133" r="7" style="animation-delay:1.4s"/>
<circle class="n4" cx="645" cy="168" r="7" style="animation-delay:1.6s"/>
<!-- L5 -->
<circle class="n5" cx="820" cy="60"  r="7" style="animation-delay:1.3s"/>
<circle class="n5" cx="820" cy="100" r="7" style="animation-delay:1.5s"/>
<circle class="n5" cx="820" cy="140" r="7" style="animation-delay:1.7s"/>

<!-- ═══ LABELS ═══ -->
<text class="lbl" x="80"  y="212">x · input</text>
<text class="lbl" x="255" y="212">dense · ReLU</text>
<text class="lbl" x="450" y="212">dense · ReLU</text>
<text class="lbl" x="645" y="212">dense · ReLU</text>
<text class="lbl" x="820" y="212">ŷ · softmax</text>
<text class="ann" x="450" y="11">← skip connections (residual) →</text>
<text class="eq"  x="450" y="202">σ(W²·ReLU(W¹x + b¹) + b²)</text>
<text class="tag" x="895" y="12">neural_net.forward(x)</text>

<!-- ═══ LOSS CURVE ═══ -->
<rect x="12" y="178" width="52" height="30" fill="#0d1117" stroke="#1f2937" stroke-width=".6"/>
<text font-family="'Courier New',monospace" font-size="6.5" fill="#30363d" x="16" y="188">loss ↓</text>
<polyline points="16,204 22,201 28,197 34,194 40,193 46,191 52,190 58,189" stroke="#7ee787" stroke-width="1" fill="none" opacity=".6"/>
</svg>
